<?xml version="1.0" encoding="utf-8"?>
<!-- Generator: Adobe Illustrator 27.1.1, SVG Export Plug-In . SVG Version: 6.00 Build 0)  -->
<svg version="1.1" id="Layer_1" xmlns="http://www.w3.org/2000/svg" xmlns:xlink="http://www.w3.org/1999/xlink" x="0px" y="0px"
	 viewBox="0 0 1024 1024" style="enable-background:new 0 0 1024 1024;" xml:space="preserve">
<style type="text/css">
	.st0{fill:none;stroke:#1B2E3F;stroke-width:49.8567;stroke-linecap:round;stroke-miterlimit:10;}
	.st1{fill:#1B2E3F;}
	.st2{fill:#F5F7FA;}
	.st3{fill:#FFFFFF;}
	.st4{fill:#2F93E0;}
	.st5{fill:#59A9E6;}
	.st6{fill:#1A2E3F;}
</style>
<path class="st0" d="M351.5,797.2c-79.2,168.9-224.3,128.9-254.2,15.1"/>
<path class="st0" d="M599.8,813.4c140.3-202,308.3-71.2,284.5,89.3"/>
<path class="st1" d="M771.4,557.8L274.9,725.5L379.8,86.3l21.1-4l423,161.9l11.1,4.3l-3.7,2.2L771.4,557.8z"/>
<path class="st2" d="M351.5,126.4l-5.7,48.9l165.4,11.5l1.7-16.4L351.5,126.4z"/>
<path class="st3" d="M718.2,824.9L196,735l87.6-574.1c0,0,17.3-14.6,44.6-26.2l180.4,43.5l-157.2-51.8c11.9-5.4,25.6-8.3,41.5-8.1
	l414.7,150.3L718.2,824.9z"/>
<path class="st4" d="M694.4,776.5c-25.1,20.3-27.7,83.9-52.5,81.4c-129.6-13.3-289.5-62.7-451.4-85.6l54.9-620.5l18.1-10.5
	c122.3,16.7,392.9,96.3,469.6,114.8c1.6,0.4,81.7-15.1,81.7-15.1l20.3,7.7c0,0-40.6,22.5-19.6,27.7L694.4,776.5z"/>
<path class="st4" d="M685.1,786.9c-25.1,20.3-49.2,82.3-52.5,81.4c-194-51.9-407.4-80.7-475-82.1l87.5-634.5
	c141.8,20.8,415.9,98.5,492.5,117c23.9,5.7,64.7-16.4,89.2-10.4L685.1,786.9z"/>
<path class="st5" d="M731.9,833.1l-99.2,35.3l105.3-599.7l97.1-20.2L731.9,833.1z"/>
<path class="st4" d="M823.9,244.2l-11.8,6.6L379.7,86.3l21.1-4L823.9,244.2z"/>
<path class="st6" d="M5.7,908.5C1.4,891.1,65.3,778.3,90.6,763c16.3-9.9,28.5,0.3,34.5,48.2c1.9,15.4,4.4,11.4-22,38.4
	C69,884.6,16.9,953.2,5.7,908.5z"/>
<path class="st1" d="M1018.4,815.8c-1.3,19.7-106.5,117.3-138.3,125c-20.5,5-30-9.8-20.3-62.4c3.1-16.9-0.8-13.5,36.1-33.2
	C943.6,819.8,1021.6,764.9,1018.4,815.8z"/>
</svg>
