<?xml version="1.0" encoding="utf-8"?>
<!-- Generator: Adobe Illustrator 27.1.1, SVG Export Plug-In . SVG Version: 6.00 Build 0)  -->
<svg version="1.1" id="Layer_1" xmlns="http://www.w3.org/2000/svg" xmlns:xlink="http://www.w3.org/1999/xlink" x="0px" y="0px"
	 viewBox="0 0 1024 1024" style="enable-background:new 0 0 1024 1024;" xml:space="preserve">
<style type="text/css">
	.st0{fill:#2F93E0;}
	.st1{fill:#1B2E3F;}
	.st2{fill:#FFFFFF;}
</style>
<circle class="st0" cx="510.5" cy="568.3" r="427.6"/>
<path class="st1" d="M286.6,157.3L119.7,324.1c-25,25-65.5,25-90.5,0l0,0c-25-25-25-65.5,0-90.5L196.1,66.7c25-25,65.5-25,90.5,0
	l0,0C311.6,91.7,311.6,132.3,286.6,157.3z"/>
<path class="st2" d="M546.6,269.5v291.9c0,19.9-16.1,36.1-36.1,36.1h0c-19.9,0-36.1-16.1-36.1-36.1V269.5
	c0-19.9,16.1-36.1,36.1-36.1h0C530.4,233.5,546.6,249.6,546.6,269.5z"/>
<path class="st2" d="M599.2,701.2L485.1,587c-14.1-14.1-14.1-36.9,0-51l0,0c14.1-14.1,36.9-14.1,51,0l114.2,114.2
	c14.1,14.1,14.1,36.9,0,51l0,0C636.2,715.3,613.3,715.3,599.2,701.2z"/>
<path class="st1" d="M904.6,325.6L737.8,158.8c-25-25-25-65.5,0-90.5l0,0c25-25,65.5-25,90.5,0l166.9,166.9c25,25,25,65.5,0,90.5
	l0,0C970.2,350.6,929.6,350.6,904.6,325.6z"/>
</svg>
